<svg class="img-fluid" id="outputsvg" xmlns="http://www.w3.org/2000/svg" width="478" height="497" viewBox="0 0 4780 4970" style="transform: matrix(1.11388, 0, 0, 1.11388, 26.035, 18.9344); transform-origin: 50% 50%; cursor: move; transition: transform 200ms ease-in-out 0s;"><g id="l4F6sJ2Ubh9y8QjXmNXK4nG" fill="rgb(53,47,41)" style="transform: none;"><g><path id="p194vOud0L" d="M2097 4614 c-31 -25 -57 -51 -57 -57 0 -7 -16 -22 -35 -34 -24 -16 -37 -35 -45 -62 -11 -42 -33 -67 -50 -56 -12 7 -52 -74 -43 -89 3 -5 1 -6 -4 -3 -6 4 -14 0 -17 -9 -3 -8 -10 -12 -16 -9 -5 3 -10 1 -10 -6 0 -6 -8 -9 -20 -6 -12 3 -18 1 -14 -5 5 -7 -2 -9 -18 -5 -37 10 -68 -17 -68 -59 0 -42 -15 -74 -35 -74 -28 0 -15 -37 28 -80 46 -48 80 -58 205 -59 49 -1 62 2 62 14 0 8 -6 15 -13 15 -20 0 -14 66 9 98 11 15 35 58 54 96 19 37 39 70 46 73 6 2 35 33 65 69 32 39 71 74 97 87 24 12 59 38 78 59 29 32 32 41 22 57 -8 13 -17 16 -27 11 -9 -4 -27 -13 -41 -19 -14 -6 -45 -23 -70 -37 -25 -14 -49 -27 -55 -28 -5 -1 -15 -5 -21 -9 -24 -14 -24 37 0 68 27 35 59 95 54 100 -2 2 -29 -16 -61 -41z"></path><path id="pgUvP5YxZ" d="M4309 3531 c-37 -36 -72 -76 -78 -88 -14 -28 -31 -30 -31 -5 0 10 -6 27 -14 38 -14 18 -16 18 -32 2 -12 -12 -17 -33 -17 -72 0 -37 -4 -57 -13 -60 -8 -3 -14 -12 -14 -21 0 -8 -9 -15 -20 -15 -11 0 -29 -14 -42 -30 -12 -17 -28 -28 -36 -25 -7 3 -22 0 -34 -6 -15 -8 -22 -7 -32 7 -19 25 -36 8 -36 -37 0 -25 11 -58 30 -93 26 -46 36 -54 68 -60 59 -9 62 -8 62 27 0 39 15 57 46 57 13 0 25 4 28 9 3 5 26 14 50 20 26 6 53 22 68 39 12 15 50 47 83 72 78 57 125 101 125 116 0 25 -21 25 -76 0 -68 -31 -91 -33 -99 -6 -7 22 -5 26 46 95 36 48 60 106 43 104 -5 -1 -39 -31 -75 -68z"></path><path id="pgkwyFpcj" d="M2900 3471 c0 -28 -4 -53 -10 -56 -13 -8 -13 -82 0 -90 6 -4 6 -15 0 -31 -13 -34 -13 -71 2 -183 11 -84 16 -99 44 -128 28 -29 37 -33 84 -33 48 0 55 3 86 37 27 30 34 45 34 78 0 52 -33 105 -78 124 -49 22 -59 101 -11 101 17 0 19 8 19 95 0 95 0 95 -32 115 -22 13 -51 20 -85 20 -53 0 -53 0 -53 -49z"></path><path id="pkHMR07fL" d="M2612 3085 c-15 -33 -15 -102 -1 -144 9 -24 17 -31 38 -31 15 0 31 -4 37 -10 5 -5 42 -12 82 -16 72 -7 72 -7 72 36 0 24 -7 70 -16 102 -14 49 -20 58 -39 58 -12 0 -39 7 -58 15 -58 24 -102 20 -115 -10z"></path><path id="phOYNmWdL" d="M665 3073 c-11 -2 -30 -6 -42 -9 -20 -4 -23 -11 -23 -48 0 -28 7 -52 20 -68 20 -26 18 -38 -7 -38 -7 0 -13 10 -13 23 0 12 -6 33 -13 47 -12 24 -15 25 -127 25 -63 0 -127 4 -142 9 -22 6 -28 5 -28 -7 0 -8 -16 -25 -36 -36 -24 -14 -34 -27 -30 -36 4 -12 -3 -15 -34 -15 -30 0 -40 -5 -45 -20 -3 -11 -4 -24 0 -30 7 -12 131 -70 150 -70 7 0 22 -11 33 -24 10 -13 32 -26 48 -28 26 -3 29 -6 26 -33 -3 -25 5 -38 42 -73 37 -34 46 -50 46 -76 0 -18 3 -36 7 -40 4 -4 6 -26 4 -50 -2 -39 0 -44 23 -50 27 -7 33 -25 15 -43 -8 -8 3 -24 40 -60 51 -49 51 -49 51 -147 0 -125 20 -195 70 -250 20 -23 41 -51 44 -63 5 -16 15 -23 32 -23 22 0 24 4 24 41 0 25 -9 55 -21 76 -19 31 -21 48 -20 176 1 127 -1 150 -24 217 -24 72 -33 150 -17 150 4 0 15 20 26 45 22 55 45 69 111 67 77 -3 99 26 110 144 5 59 3 74 -14 102 -12 17 -25 32 -31 32 -5 0 -10 5 -10 10 0 6 7 10 15 10 10 0 15 10 15 33 0 35 -20 56 -90 92 -19 10 -39 24 -43 31 -8 14 -93 18 -142 7z m255 -398 c0 -3 -2 -5 -5 -5 -3 0 -5 2 -5 5 0 3 2 5 5 5 3 0 5 -2 5 -5z"></path><path id="pPDapfId3" d="M2945 2758 c-7 -23 -23 -40 -55 -58 -35 -21 -51 -39 -74 -86 -15 -32 -31 -76 -33 -96 -6 -37 -6 -37 -97 -40 -91 -3 -91 -3 -94 -30 -3 -27 -5 -28 -64 -28 -45 0 -66 -5 -85 -20 -16 -12 -41 -20 -64 -20 -62 0 -121 -32 -144 -76 -21 -40 -62 -83 -81 -84 -5 0 -23 -14 -40 -31 -31 -33 -155 -119 -171 -119 -6 0 -28 -12 -49 -27 -21 -14 -57 -32 -79 -38 -27 -8 -41 -19 -45 -34 -3 -12 -16 -29 -31 -39 -42 -29 -109 -108 -109 -130 0 -13 -9 -22 -24 -26 -19 -5 -24 -14 -28 -49 -8 -70 -94 -223 -169 -303 -18 -20 -24 -46 -37 -164 -14 -132 -14 -143 3 -178 71 -147 95 -186 153 -247 31 -33 68 -76 82 -95 54 -74 199 -214 275 -265 44 -30 116 -68 160 -86 44 -18 91 -39 105 -48 36 -23 449 -22 567 2 45 9 90 20 100 25 224 105 346 187 461 307 119 124 191 230 247 365 15 36 44 88 64 115 34 45 39 59 45 130 6 64 4 87 -8 110 -9 17 -16 37 -16 45 0 25 -59 70 -91 70 -24 0 -30 -5 -38 -37 -12 -43 -13 -96 -3 -163 8 -48 -24 -164 -66 -245 -12 -22 -30 -59 -41 -81 -11 -25 -32 -48 -50 -57 -31 -15 -31 -15 -31 12 0 19 -16 44 -57 87 -81 83 -111 104 -150 104 -32 0 -33 2 -33 38 0 46 -11 61 -72 95 -33 19 -61 27 -96 27 -32 0 -54 5 -62 15 -17 20 -71 19 -109 -2 -27 -16 -31 -24 -31 -59 0 -29 -5 -44 -16 -48 -24 -9 -74 -7 -74 3 0 5 -9 12 -20 16 -11 3 -25 18 -32 33 -11 24 -23 29 -92 42 -78 15 -78 15 -57 34 19 17 32 18 151 12 136 -7 152 -4 198 37 18 16 22 31 22 75 0 45 5 62 27 91 17 22 30 53 33 81 5 44 6 45 43 48 29 3 40 9 52 32 8 16 15 35 15 43 0 32 26 39 92 27 35 -6 80 -14 100 -17 20 -3 46 -16 59 -29 12 -13 27 -24 33 -24 14 -1 66 -46 66 -57 0 -16 96 -53 138 -53 42 0 42 0 42 40 0 22 -4 40 -10 40 -5 0 -10 20 -10 45 0 38 -5 50 -32 75 -18 16 -42 32 -53 36 -28 9 -56 35 -66 62 -7 17 -16 22 -44 22 -36 0 -56 14 -88 63 -9 15 -24 27 -32 27 -8 0 -15 6 -15 14 0 8 -25 30 -55 50 -30 20 -57 41 -60 47 -4 5 -26 19 -51 30 -58 28 -58 49 0 49 39 0 45 3 56 30 9 22 11 53 5 108 -4 42 -8 97 -9 122 -1 42 1 46 36 62 44 21 88 81 88 122 0 90 -53 156 -126 156 -36 0 -41 -3 -49 -32z m135 -73 c0 -3 -2 -5 -5 -5 -3 0 -5 2 -5 5 0 3 2 5 5 5 3 0 5 -2 5 -5z m10 -30 c0 -3 -2 -5 -5 -5 -3 0 -5 2 -5 5 0 3 2 5 5 5 3 0 5 -2 5 -5z m5 -675 c3 -5 1 -10 -4 -10 -6 0 -11 5 -11 10 0 6 2 10 4 10 3 0 8 -4 11 -10z m55 -65 c0 -3 -2 -5 -5 -5 -3 0 -5 2 -5 5 0 3 2 5 5 5 3 0 5 -2 5 -5z m27 -42 c-4 -3 -7 0 -7 7 0 7 3 10 7 7 3 -4 3 -10 0 -14z m43 2 c0 -3 -2 -5 -5 -5 -3 0 -5 2 -5 5 0 3 2 5 5 5 3 0 5 -2 5 -5z m-1351 -301 c18 -8 44 -14 56 -14 25 0 105 -72 105 -94 0 -8 14 -19 30 -26 28 -12 30 -16 30 -64 0 -53 11 -76 44 -94 18 -9 17 -11 -10 -27 -16 -10 -40 -26 -54 -35 -14 -9 -41 -25 -60 -35 -56 -29 -99 -84 -100 -126 0 -30 -4 -38 -24 -43 -14 -3 -29 -18 -37 -38 -7 -18 -21 -44 -31 -57 -10 -13 -18 -36 -18 -52 0 -19 -8 -34 -25 -45 -19 -12 -25 -25 -25 -52 0 -35 0 -35 -26 -11 -14 13 -33 38 -41 54 -9 17 -31 47 -49 68 -19 20 -34 47 -34 60 0 24 -33 103 -54 127 -20 24 -35 88 -41 181 -6 73 -4 87 9 92 9 4 16 15 16 25 0 10 23 43 51 73 27 30 56 60 62 68 7 7 30 31 52 52 38 38 42 39 90 33 28 -3 65 -12 84 -20z m1411 -721 c0 -5 -7 -17 -15 -27 -15 -20 -15 -20 -15 0 0 12 3 24 7 27 9 9 23 9 23 0z"></path></g></g><g id="l3c1gvPUz02KztKmQXAO2EF" fill="rgb(67,63,57)" style="transform: none;"><g><path id="pD1yEli9n" d="M2321 4605 c-30 -29 -42 -48 -38 -59 11 -27 31 -18 65 32 54 81 42 94 -27 27z"></path><path id="ph4KvdnKN" d="M620 3075 c0 -8 -5 -15 -11 -15 -6 0 -19 -10 -29 -22 -16 -21 -20 -21 -61 -9 -24 8 -78 17 -119 22 -62 7 -77 6 -92 -8 -20 -18 -24 -63 -5 -63 6 0 20 -18 29 -40 9 -23 23 -40 32 -40 15 0 15 2 2 23 -21 31 -6 52 31 44 16 -3 55 -2 86 2 67 9 79 0 81 -57 1 -37 1 -37 45 -34 50 3 81 17 81 36 0 7 -13 30 -30 51 -35 44 -38 65 -10 72 24 6 27 38 4 47 -25 10 -34 7 -34 -9z"></path><path id="p124cOmTj6" d="M242 2964 c-30 -21 -28 -35 3 -21 14 7 25 18 25 25 0 15 -1 15 -28 -4z"></path><path id="pgvmoNtnr" d="M145 2899 c-5 -14 -1 -27 11 -38 14 -12 15 -12 7 -1 -7 9 -8 21 -3 29 7 12 19 10 69 -9 34 -12 65 -20 68 -16 3 3 4 7 2 9 -2 1 -18 12 -36 25 -44 30 -109 31 -118 1z"></path><path id="p3fmtrzJw" d="M190 2845 c0 -6 91 -45 106 -45 7 0 31 -24 53 -52 21 -29 62 -75 90 -103 51 -49 51 -49 51 -120 0 -78 5 -89 38 -99 25 -8 30 -34 7 -42 -11 -4 0 -20 40 -58 30 -28 55 -60 55 -71 0 -15 3 -16 12 -7 9 9 7 17 -10 35 -13 13 -19 30 -16 42 3 15 -4 25 -26 37 -31 18 -39 41 -18 54 7 5 2 15 -17 30 -27 22 -27 44 1 44 24 0 16 30 -16 58 -35 31 -37 43 -10 67 26 24 17 35 -29 35 -44 0 -83 32 -63 52 12 12 33 12 132 3 61 -6 67 -5 88 18 24 25 24 25 3 36 -15 9 -27 9 -41 1 -22 -12 -122 -5 -176 11 -17 5 -48 10 -70 11 -21 0 -46 7 -55 14 -15 14 -129 57 -129 49z"></path><path id="pJCwWRPeZ" d="M935 2800 c4 -14 2 -20 -9 -20 -12 0 -13 -6 -6 -31 6 -20 6 -39 -1 -50 -5 -11 -6 -19 -2 -19 12 -1 -40 -40 -52 -40 -6 0 -25 19 -44 43 -24 32 -31 49 -27 70 5 24 3 27 -21 27 -25 0 -25 -2 -19 -42 4 -24 11 -47 17 -52 16 -17 10 -43 -15 -54 -13 -6 -31 -29 -42 -56 -13 -31 -25 -46 -38 -46 -15 0 -17 -5 -11 -22 4 -13 11 -48 15 -78 4 -30 17 -85 29 -122 19 -58 21 -86 19 -205 -3 -128 -1 -141 20 -174 26 -43 28 -59 6 -59 -13 0 -13 -4 3 -32 24 -42 61 -78 79 -78 8 0 18 -8 21 -17 4 -10 17 -31 29 -48 12 -16 27 -48 33 -70 6 -22 17 -49 25 -60 9 -11 16 -29 16 -41 0 -28 47 -97 114 -167 31 -33 56 -64 56 -71 0 -7 9 -21 20 -31 11 -10 20 -21 20 -25 0 -3 22 -30 49 -58 27 -28 59 -73 72 -98 22 -47 103 -132 157 -164 15 -9 39 -30 53 -47 38 -45 49 -49 39 -12 -5 17 -13 36 -19 42 -8 11 -75 133 -91 167 -4 8 -15 31 -24 51 -13 27 -15 42 -8 55 5 11 10 54 10 97 1 93 -4 82 124 259 42 57 78 144 78 187 0 16 7 31 15 35 28 10 15 26 -22 26 -32 1 -41 6 -61 37 -20 31 -22 40 -11 59 16 31 18 176 2 181 -9 3 -13 31 -13 89 0 85 0 85 -52 135 -28 28 -62 55 -75 60 -18 6 -23 16 -23 41 0 26 -7 38 -33 56 -18 12 -43 22 -55 22 -14 0 -31 14 -48 40 -19 28 -34 40 -50 40 -14 0 -24 6 -24 14 0 7 -13 16 -30 20 -29 5 -30 8 -31 58 -2 83 -11 111 -41 126 -15 7 -37 26 -48 42 -16 22 -30 30 -51 30 -26 0 -29 -3 -24 -20z"></path><path id="pIKf88GLk" d="M630 2131 c0 -85 3 -105 23 -140 23 -40 23 -40 33 9 8 37 7 50 -2 54 -7 3 -17 28 -23 57 -10 45 -9 54 4 61 21 13 19 23 -10 42 -25 16 -25 16 -25 -83z"></path><path id="p14c6ifYLr" d="M1506 1423 c-6 -14 -5 -15 5 -6 7 7 10 15 7 18 -3 3 -9 -2 -12 -12z"></path><path id="pBBXo0U20" d="M2626 1335 c-3 -8 -12 -15 -21 -15 -9 0 -23 -17 -32 -37 -21 -51 -50 -87 -56 -71 -4 11 -6 11 -6 0 -1 -7 10 -18 24 -24 14 -6 25 -15 25 -20 0 -4 11 -8 25 -8 13 0 35 -5 48 -11 20 -9 30 -6 60 14 21 14 45 23 56 20 34 -9 32 15 -4 36 -42 24 -44 34 -10 49 31 14 31 24 1 56 -27 30 -100 37 -110 11z"></path><path id="p19QqIwf6k" d="M2435 1258 c27 -5 56 -14 65 -21 8 -6 6 -2 -4 11 -15 17 -29 22 -65 21 -46 -1 -46 -1 4 -11z"></path><path id="p18PqoZEul" d="M2396 1208 c-6 -29 -2 -37 26 -60 36 -30 65 -32 81 -7 7 11 7 21 -1 30 -7 8 -21 26 -33 42 -29 39 -65 37 -73 -5z"></path><path id="pMTa2wgWf" d="M3020 1151 c0 -14 -8 -21 -27 -23 -26 -3 -28 -6 -26 -42 2 -25 -3 -46 -13 -57 -19 -21 -23 -94 -6 -134 15 -36 89 -84 97 -62 3 7 -6 34 -20 60 -29 55 -32 99 -10 151 15 36 56 63 76 50 16 -9 10 44 -7 60 -23 23 -64 21 -64 -3z"></path><path id="p7G4JAhD9" d="M1879 1062 c-14 -15 -46 -45 -72 -67 -45 -41 -45 -41 -52 -143 -7 -99 -7 -102 13 -102 14 0 20 5 16 14 -3 7 6 21 20 30 18 11 26 25 26 45 0 16 8 39 19 52 10 13 21 34 25 46 12 38 34 55 57 43 10 -6 19 -17 19 -24 0 -13 31 -46 43 -46 18 0 4 51 -23 85 -32 40 -37 64 -18 83 9 9 5 12 -17 12 -19 -1 -40 -11 -56 -28z"></path></g></g><g id="l1uF5QQcAaEePRCBMj8CkeI" fill="rgb(231,210,86)" style="transform: none;"><g><path id="pFenDR49y" d="M1547 4158 c-42 -9 -138 -55 -149 -72 -4 -6 -8 -7 -8 -1 0 5 -17 -7 -37 -27 -36 -34 -107 -68 -145 -68 -9 0 -29 -16 -44 -35 -15 -19 -57 -58 -95 -85 -46 -34 -74 -62 -84 -86 -8 -20 -26 -49 -40 -66 -14 -16 -25 -35 -25 -41 0 -7 -25 -45 -55 -85 -30 -40 -55 -75 -55 -77 0 -2 -14 -19 -30 -37 -17 -18 -30 -38 -30 -45 0 -7 -4 -13 -9 -13 -5 0 -12 -24 -15 -54 -4 -30 -14 -62 -21 -72 -8 -11 -15 -43 -15 -73 0 -49 -3 -58 -35 -87 -40 -37 -47 -79 -15 -89 11 -4 44 -3 74 0 42 6 56 4 62 -8 5 -8 27 -24 49 -35 58 -31 95 -61 73 -62 -23 0 -48 -27 -48 -51 0 -11 4 -18 9 -15 10 6 40 -22 111 -103 25 -28 50 -51 56 -51 25 0 38 -33 39 -103 1 -72 1 -72 33 -82 18 -5 32 -15 32 -22 0 -7 11 -13 24 -13 16 0 31 -12 50 -40 17 -26 34 -40 48 -40 30 0 88 -41 88 -62 0 -14 -8 -18 -34 -18 -57 0 -49 -15 13 -28 50 -10 67 -21 115 -67 50 -47 56 -57 46 -75 -7 -13 -7 -20 0 -20 14 0 13 -56 -2 -81 -11 -18 -10 -23 11 -40 14 -11 23 -29 22 -44 -1 -14 -1 -37 -2 -52 0 -16 -4 -32 -9 -38 -4 -5 -10 -29 -14 -51 -4 -32 -2 -43 9 -48 8 -3 20 -17 27 -31 9 -21 18 -25 54 -25 59 0 98 16 90 36 -7 17 57 95 103 126 15 10 28 27 31 39 4 15 18 26 45 34 22 6 58 24 79 38 21 15 43 27 49 27 16 0 140 86 171 119 17 17 35 31 40 31 19 1 60 44 81 84 23 44 82 76 144 76 24 0 49 8 65 21 24 19 36 21 86 16 59 -7 59 -7 62 26 3 32 3 32 73 31 39 0 81 -2 95 -5 23 -4 25 -1 26 41 1 26 14 70 30 104 23 47 39 65 74 86 32 18 48 35 55 58 9 32 28 42 41 21 10 -17 24 11 24 52 0 19 -5 40 -11 46 -8 8 -8 22 0 49 18 65 15 81 -18 87 -49 10 -76 59 -90 162 -12 92 -9 115 21 157 10 14 8 21 -11 42 -21 22 -22 26 -8 46 10 14 13 35 10 61 -5 36 -4 39 18 39 27 0 89 -35 89 -50 0 -19 25 -10 35 12 6 13 22 25 36 28 40 8 89 54 89 84 0 19 -5 26 -19 26 -11 0 -22 4 -25 9 -3 4 -28 11 -55 15 -39 5 -55 13 -75 37 -14 17 -26 35 -26 40 0 5 -8 9 -17 9 -16 0 -32 11 -90 60 -6 5 -31 17 -55 26 -24 10 -54 27 -68 38 -14 12 -36 28 -50 34 -14 7 -33 26 -42 42 -15 26 -23 30 -58 30 -39 0 -108 34 -137 68 -7 8 -48 17 -107 22 -53 5 -109 16 -125 24 -22 12 -49 14 -115 9 -48 -3 -89 -10 -92 -15 -8 -12 -194 -10 -194 3 0 7 -13 8 -38 4 -37 -6 -42 -3 -88 44 -27 28 -57 51 -66 51 -10 0 -18 4 -18 9 0 13 -50 18 -93 9z m1150 -1093 c19 -8 46 -15 58 -15 19 0 25 -9 39 -58 9 -32 16 -64 16 -70 0 -16 -76 -5 -106 15 -12 7 -28 11 -37 7 -25 -9 -44 65 -27 105 15 36 11 35 57 16z"></path></g></g><g id="l4apVpZDs36YJ98mwrXnesG" fill="rgb(163,171,193)" style="transform: none;"><g><path id="pyxboSVul" d="M1854 4318 c-4 -7 -3 -8 4 -4 7 4 12 9 12 12 0 8 -9 4 -16 -8z"></path><path id="pb3jzk1YD" d="M1820 4295 c0 -3 2 -5 5 -5 3 0 5 2 5 5 0 3 -2 5 -5 5 -3 0 -5 -2 -5 -5z"></path><path id="p9mSBG6KS" d="M1780 4285 c0 -3 2 -5 5 -5 3 0 5 2 5 5 0 3 -2 5 -5 5 -3 0 -5 -2 -5 -5z"></path><path id="p9S1u4lDX" d="M1743 4273 c4 -3 10 -3 14 0 3 4 0 7 -7 7 -7 0 -10 -3 -7 -7z"></path><path id="pc9pwJREa" d="M1674 1598 c-26 -24 -53 -50 -60 -58 -7 -8 -36 -39 -63 -69 -28 -30 -51 -62 -51 -72 0 -10 -8 -23 -19 -28 -21 -12 -26 -75 -9 -129 6 -22 6 -42 0 -62 -10 -28 -2 -57 40 -130 31 -55 58 -118 58 -137 0 -12 17 -42 38 -67 20 -24 46 -59 57 -77 11 -18 40 -48 65 -66 25 -17 55 -42 68 -54 27 -27 28 -15 2 62 -17 50 -19 74 -14 137 8 83 2 74 111 172 15 14 46 45 68 71 37 42 67 63 168 119 21 11 42 32 47 45 10 26 4 55 -11 55 -5 0 -18 9 -29 20 -15 15 -20 33 -20 74 0 50 -2 54 -30 66 -16 7 -30 18 -30 26 0 24 -80 94 -106 94 -14 0 -33 4 -43 10 -18 9 -154 40 -178 40 -6 0 -33 -19 -59 -42z"></path></g></g><g id="l57HBbh2sBhjBucdItH1QQX" fill="rgb(243,231,122)" style="transform: none;"><g><path id="pMG3nuqKc" d="M3170 3580 c0 -18 -64 -69 -86 -70 -37 0 -47 -24 -45 -110 2 -73 0 -80 -17 -80 -35 0 -42 -21 -32 -86 5 -32 13 -60 17 -62 47 -16 103 -75 103 -107 0 -17 -66 -85 -83 -85 -9 0 -18 -13 -22 -32 -4 -18 -14 -43 -22 -56 -13 -21 -12 -27 6 -57 11 -18 17 -42 15 -53 -4 -13 5 -27 29 -45 20 -15 41 -43 47 -62 11 -33 9 -40 -14 -76 -15 -21 -43 -47 -64 -57 -34 -15 -37 -21 -41 -62 -1 -25 2 -80 9 -123 18 -112 -8 -168 -55 -117 -31 34 -50 26 -49 -23 1 -81 3 -84 42 -102 20 -10 52 -31 70 -46 18 -16 37 -29 43 -29 6 0 46 -36 89 -81 64 -66 84 -80 110 -81 22 -1 34 -7 40 -22 9 -25 38 -51 65 -60 31 -10 85 -63 85 -84 0 -10 -6 -24 -12 -31 -11 -10 -8 -16 11 -32 31 -25 19 -37 -21 -21 -31 12 -31 12 0 -19 18 -17 32 -35 32 -41 0 -5 15 -24 34 -42 18 -19 36 -49 40 -67 8 -34 8 -34 17 -8 10 26 10 26 39 1 17 -15 30 -33 30 -42 0 -8 6 -27 14 -41 10 -20 11 -41 4 -91 -6 -40 -6 -73 -1 -83 10 -16 9 -17 130 139 18 22 42 52 53 65 11 13 20 30 20 38 0 7 34 50 76 94 41 45 81 93 87 108 6 14 23 42 37 61 41 56 70 116 70 143 0 14 23 90 51 169 72 204 79 227 79 285 0 28 4 55 10 58 12 8 13 217 1 231 -5 5 -14 27 -21 49 -7 22 -16 45 -20 50 -20 25 -48 138 -54 214 -3 53 -13 99 -26 126 -11 23 -20 46 -20 52 0 12 -23 23 -50 23 -25 0 -82 102 -75 133 8 32 -51 121 -84 125 -14 2 -34 10 -45 17 -12 8 -41 13 -66 12 -43 -1 -107 23 -205 79 -16 9 -37 21 -45 26 -36 20 -70 31 -143 43 -43 8 -93 23 -111 35 -35 21 -76 27 -76 10z"></path></g></g><g id="lQLz6GOXR31AtZRxCEcrc4" fill="rgb(236,223,184)" style="transform: none;"><g><path id="p17EGblod8" d="M2916 1806 c-9 -14 -16 -30 -16 -36 0 -6 -7 -24 -15 -40 -13 -24 -22 -30 -49 -30 -41 0 -59 -19 -50 -55 5 -20 -1 -36 -25 -70 -17 -24 -31 -51 -31 -60 0 -9 -5 -25 -11 -36 -8 -15 -7 -24 2 -36 11 -13 8 -20 -19 -44 -56 -50 -104 -51 -123 -2 -10 27 -10 27 -22 3 -12 -24 -18 -25 -94 -25 -70 0 -85 -3 -105 -22 -13 -12 -44 -31 -70 -42 -53 -22 -60 -36 -25 -52 12 -5 31 -26 42 -46 28 -51 45 -54 45 -6 0 61 7 65 80 51 51 -10 67 -18 77 -37 28 -57 62 -47 94 26 10 25 25 43 34 43 9 0 18 7 21 15 8 19 33 19 40 0 10 -25 43 -38 60 -24 11 9 18 8 32 -5 12 -10 36 -16 65 -16 65 0 156 -50 164 -91 3 -16 14 -31 24 -34 11 -4 19 -10 19 -15 0 -5 13 -16 29 -24 40 -21 171 -156 171 -177 0 -9 -8 -23 -19 -30 -14 -11 -20 -32 -25 -86 -4 -52 -3 -73 5 -73 20 0 89 79 89 101 0 31 19 59 46 69 14 6 33 27 45 52 11 24 29 59 39 78 11 19 33 78 50 130 30 90 31 97 21 170 -8 51 -8 86 -1 110 16 56 12 77 -23 112 -18 19 -36 41 -40 51 -3 9 -14 17 -24 17 -23 0 -113 42 -113 53 0 10 -52 56 -64 57 -6 0 -22 12 -37 26 -15 14 -42 27 -60 29 -56 7 -183 32 -200 39 -11 5 -21 -1 -33 -18z"></path></g></g></svg>